<?xml version="1.0" encoding="UTF-8"?>
<svg id="Layer_1" data-name="Layer 1" xmlns="http://www.w3.org/2000/svg" viewBox="0 0 1224 506.53">
  <defs>
    <style>
      .cls-1 {
        fill: #fff;
      }

      .cls-2 {
        fill: #00a0a0;
      }
    </style>
  </defs>
  <path d="M1116,434.53h36l-144,72-36-72h36l72-144c22.5-45-49.5-45-72,0l-72,144h36l-144,72-36-72h36l72-144c22.5-45-49.5-45-72,0l-72,144h36l-144,72-36-72h36l108-216s72-45,207-54L1044,2.53h108l-81,162c99,9,153,54,153,54l-108,216Z"/>
  <g>
    <circle class="cls-2" cx="432.75" cy="220.69" r="2.11"/>
    <circle class="cls-1" cx="432.75" cy="220.69" r="1.58"/>
    <path d="M0,2.53h67.82c34.92,0,58.46,19.49,58.46,51.88,0,34.92-25.31,53.15-59.73,53.15H26.07v70.86H0V2.53ZM26.07,85.79h38.72c22.78,0,34.92-10.88,34.92-30.88s-14.43-30.62-34.17-30.62H26.07v61.5Z"/>
    <path d="M133.11,49.6h24.8v128.82h-24.8V49.6Z"/>
    <path d="M165.04,49.6h21.76V12.15h24.8v37.46h27.84v19.74h-27.84v73.14c0,12.15,3.04,17.97,14.43,17.97,3.04,0,7.34,0,10.63-1.01v18.47c-5.82,2.02-13.67,2.28-19.99,2.28-21.26,0-29.86-10.88-29.86-32.65v-78.2h-21.76v-19.74Z"/>
    <path d="M344.22,138.69c-5.31,22.02-20.25,42.77-54.16,42.77-36.19,0-57.95-26.07-57.95-66.81,0-36.7,21.01-68.08,59.73-68.08s50.87,27.33,52.39,43.53h-24.55c-2.78-12.65-10.63-23.03-28.34-23.03-21.51,0-33.66,18.47-33.66,46.82s11.89,47.33,32.9,47.33c15.44,0,24.3-8.35,29.1-22.52h24.55Z"/>
    <path d="M415.37,46.56c-21.51,0-33.15,10.63-39.47,21.26V2.53h-24.8v175.88h24.8v-70.1c0-25.31,9.11-40.75,31.63-40.75,17.96,0,26.58,11.65,26.58,32.65v78.2h24.79v-82.24c0-37.71-22.01-49.61-43.53-49.61Z"/>
    <path d="M700.23,67.32l-45.05,65.29,46.82,45.81h-33.41l-27.33-26.83c-14.93,18.73-29.61,29.36-55.42,29.36-34.17,0-51.38-24.04-51.38-46.82,0-19.99,8.86-33.91,37.2-51.37-11.89-12.65-20.25-23.03-20.25-39.23,0-23.54,16.7-43.53,45.3-43.53,27.08,0,43.78,18.98,43.78,41,0,17.72-10.38,29.36-34.17,43.78l33.91,33.15,33.66-50.62h26.32ZM626.33,137.17l-41.76-41c-18.73,12.65-24.3,21.51-24.3,35.18,0,14.68,11.39,27.84,27.59,27.84,14.93,0,24.8-5.06,38.47-22.02ZM574.96,42.01c0,10.12,6.33,18.22,18.73,30.12,19.23-12.4,23.79-19.99,23.79-30.88,0-11.64-6.83-22.52-21-22.52-12.91,0-21.51,8.6-21.51,23.28Z"/>
    <path d="M0,255.6h67.82c34.92,0,58.46,19.49,58.46,51.88,0,34.92-25.31,53.15-59.73,53.15H26.07v70.86H0v-175.89ZM26.07,338.86h38.72c22.78,0,34.92-10.88,34.92-30.88s-14.43-30.62-34.17-30.62H26.07v61.5Z"/>
    <path d="M242.53,366.7c0,37.71-21.51,67.82-61.24,67.82-37.46,0-59.98-28.6-59.98-67.32s22.27-67.57,61.5-67.57c36.19,0,59.73,26.83,59.73,67.07ZM146.87,366.96c0,27.58,13.41,47.07,35.43,47.07s34.92-18.47,34.92-46.82-12.65-47.07-35.43-47.07-34.92,17.97-34.92,46.82Z"/>
    <path d="M286.81,335.07c0-11.13,0-22.52-.25-32.39h24.3c.51,3.8,1.01,16.45,1.01,20.25,4.81-10.63,15.44-23.28,39.73-23.28s43.02,15.18,43.02,49.1v82.76h-24.8v-79.72c0-18.47-7.09-31.13-26.07-31.13-22.52,0-31.89,16.7-31.89,42.01v68.84h-25.05v-96.42Z"/>
    <path d="M393.9,302.67h21.76v-37.46h24.8v37.46h27.84v19.74h-27.84v73.14c0,12.15,3.04,17.97,14.43,17.97,3.04,0,7.34,0,10.63-1.01v18.47c-5.82,2.03-13.67,2.28-19.99,2.28-21.26,0-29.86-10.88-29.86-32.65v-78.2h-21.76v-19.74Z"/>
    <rect x="133.11" y="2.53" width="24.8" height="24.8"/>
    <g>
      <path d="M251.01,302.67h24.8v128.82h-24.8v-128.82Z"/>
      <rect x="251.01" y="255.6" width="24.8" height="24.8"/>
    </g>
  </g>
</svg>