<?xml version="1.0" encoding="UTF-8"?>
<svg id="Layer_1" data-name="Layer 1" xmlns="http://www.w3.org/2000/svg" xmlns:xlink="http://www.w3.org/1999/xlink" viewBox="0 0 103.5 69.7">
  <defs>
    <style>
      .cls-1 {
        fill: url(#linear-gradient-3);
      }

      .cls-2 {
        fill: url(#linear-gradient-2);
      }

      .cls-3 {
        fill: url(#linear-gradient);
      }
    </style>
    <linearGradient id="linear-gradient" x1="25.65" y1="69.7" x2="25.65" y2="0" gradientUnits="userSpaceOnUse">
      <stop offset=".4" stop-color="#ffc800"/>
      <stop offset=".8" stop-color="#fff"/>
    </linearGradient>
    <linearGradient id="linear-gradient-2" x1="66.8" y1="29.4" x2="66.8" y2=".8" gradientUnits="userSpaceOnUse">
      <stop offset="0" stop-color="#ffc800"/>
      <stop offset=".6" stop-color="#fff"/>
    </linearGradient>
    <linearGradient id="linear-gradient-3" x1="84.8" y1="69.7" x2="84.8" y2="22.1" gradientUnits="userSpaceOnUse">
      <stop offset=".6" stop-color="#ffc800"/>
      <stop offset="1" stop-color="#fff"/>
    </linearGradient>
  </defs>
  <path class="cls-3" d="M51.3,66.1c-5.9,3-10.7,3.6-14.7,3.6-12.3,0-20.6-4.2-26.2-9.7C4.4,54.2,0,45.4,0,34.7S4.4,15.4,10.4,9.6C16.3,3.9,24.9,0,35.3,0c4.4,0,9.5.9,16,3.7v17.8c-3.4-3.6-8.5-7.1-15.6-7.1-5.6,0-10.1,1.8-13.6,5.2-3.7,3.6-6.3,9-6.3,15.4,0,6.9,2.8,11.8,5.8,14.7,1.4,1.4,6.2,5.6,14.4,5.6,4,0,9.4-1.1,15.3-6.9v17.7Z"/>
  <path class="cls-2" d="M65.7.8l13.2.7-15.2,27.9-9-.4L65.7.8Z"/>
  <path class="cls-1" d="M96,35c-2.2-1.3-5.1-2.5-7.9-2.5-1.5,0-3.2.4-4.1,1.3-.5.5-.9,1.3-.9,2,0,1,.7,1.6,1.4,2,1,.6,2.5.9,4.3,1.5l3.8,1.2c2.5.8,5.1,1.8,7.4,3.9,2.6,2.4,3.5,5.1,3.5,8.5,0,5.9-2.6,9.7-4.6,11.7-4.4,4.4-9.8,5.1-14.5,5.1-6,0-12.5-1.3-18.3-6.4l6.1-9.7c1.4,1.2,3.4,2.6,4.9,3.3,2,1,4.1,1.4,6,1.4.9,0,3.2,0,4.5-1,.9-.7,1.5-1.8,1.5-2.9,0-.8-.3-1.8-1.6-2.6-1-.6-2.3-1-4.4-1.6l-3.6-1.1c-2.6-.8-5.3-2.2-7.2-4.1-2.1-2.2-3.2-4.7-3.2-8.1,0-4.3,1.7-7.9,4.3-10.3,4-3.7,9.4-4.5,13.5-4.5,6.6,0,11.2,1.7,14.8,3.8l-5.7,9.1Z"/>
</svg>