<?xml version="1.0" encoding="UTF-8"?>
<svg id="Layer_1" data-name="Layer 1" xmlns="http://www.w3.org/2000/svg" xmlns:xlink="http://www.w3.org/1999/xlink" viewBox="0 0 105.14 72">
  <defs>
    <style>
      .cls-1 {
        fill: url(#linear-gradient-3);
      }

      .cls-2 {
        fill: url(#linear-gradient-2);
      }

      .cls-3 {
        fill: url(#linear-gradient);
      }
    </style>
    <linearGradient id="linear-gradient" x1="26.44" y1="72" x2="26.44" y2="0" gradientUnits="userSpaceOnUse">
      <stop offset=".2" stop-color="#ffc800"/>
      <stop offset=".8" stop-color="#fff"/>
    </linearGradient>
    <linearGradient id="linear-gradient-2" x1="68.05" y1="31.69" x2="68.05" y2="1.14" gradientUnits="userSpaceOnUse">
      <stop offset="0" stop-color="#ffe279"/>
      <stop offset=".6" stop-color="#fff"/>
    </linearGradient>
    <linearGradient id="linear-gradient-3" x1="84.88" y1="72" x2="84.88" y2="22.44" gradientUnits="userSpaceOnUse">
      <stop offset=".4" stop-color="#ffc800"/>
      <stop offset="1" stop-color="#fff"/>
    </linearGradient>
  </defs>
  <path class="cls-3" d="M52.88,68.57c-7.17,2.6-11.12,3.43-15.58,3.43-12.05,0-21.09-4.78-26.8-10.39C3.74,54.86,0,45.4,0,36.36c0-9.87,4.26-19.22,10.49-25.56C16.62,4.57,25.87,0,36.67,0c3.32,0,8.73.52,16.21,3.53v21.51c-5.82-7.17-12.68-7.58-15.69-7.58-5.19,0-9.14,1.56-12.47,4.57-4.26,3.95-6.03,9.35-6.03,14.23s1.97,10.08,5.61,13.51c3.01,2.81,7.79,4.78,12.88,4.78,2.7,0,9.35-.31,15.69-7.27v21.3Z"/>
  <path class="cls-2" d="M66.18,1.14h15.69l-16.94,30.55h-10.7L66.18,1.14Z"/>
  <path class="cls-1" d="M70.54,55.07c1.97,1.45,4.36,2.7,6.65,3.43,2.08.73,4.68,1.14,6.44,1.14,1.25,0,3.22-.31,4.26-1.25.73-.73.83-1.35.83-2.18,0-.73-.1-1.45-.83-2.08-1.04-.93-2.7-1.25-4.36-1.66l-4.36-1.04c-2.29-.52-5.61-1.35-8.1-4.05-1.77-1.87-3.01-4.47-3.01-8,0-4.47,1.77-8.62,4.36-11.32,3.53-3.64,9.77-5.61,16.62-5.61s12.16,1.87,14.86,3.01l-5.61,10.6c-2.29-1.04-5.71-2.29-8.73-2.29-1.66,0-2.81.31-3.84.94-.93.52-1.45,1.25-1.45,2.29,0,1.45.94,2.18,1.97,2.6,1.56.62,2.91.62,5.51,1.35l3.01.83c2.18.62,5.51,2.29,6.86,3.64,2.29,2.18,3.53,5.82,3.53,9.25,0,5.61-2.39,9.35-4.68,11.53-5.4,5.4-13.3,5.82-17.14,5.82-4.16,0-10.7-.52-18.7-5.4l5.92-11.53Z"/>
</svg>