<?xml version="1.0" encoding="UTF-8"?>
<svg id="Layer_1" data-name="Layer 1" xmlns="http://www.w3.org/2000/svg" viewBox="0 0 99.2 69.3">
  <defs>
    <style>
      .cls-1 {
        fill: #fff;
      }
    </style>
  </defs>
  <path class="cls-1" d="M50.9,66c-6.9,2.5-10.7,3.3-15,3.3-11.6,0-20.3-4.6-25.8-10C3.6,52.8,0,43.7,0,35c0-9.5,4.1-18.5,10.1-24.6C16,4.4,24.9,0,35.3,0c3.2,0,8.4.5,15.6,3.4v20.7c-5.6-6.9-12.2-7.3-15.1-7.3-5,0-8.8,1.5-12,4.4-4.1,3.8-5.8,9-5.8,13.7s1.9,9.7,5.4,13c2.9,2.7,7.5,4.6,12.4,4.6,2.6,0,9-.3,15.1-7v20.5Z"/>
  <path class="cls-1" d="M62.7,1.1h15.1l-16.3,29.4h-10.3L62.7,1.1Z"/>
  <path class="cls-1" d="M65.9,53c1.9,1.4,4.2,2.6,6.4,3.3,2,.7,4.5,1.1,6.2,1.1,1.2,0,3.1-.3,4.1-1.2.7-.7.8-1.3.8-2.1,0-.7-.1-1.4-.8-2-1-.9-2.6-1.2-4.2-1.6l-4.2-1c-2.2-.5-5.4-1.3-7.8-3.9-1.7-1.8-2.9-4.3-2.9-7.7,0-4.3,1.7-8.3,4.2-10.9,3.4-3.5,9.4-5.4,16-5.4s11.7,1.8,14.3,2.9l-5.4,10.2c-2.2-1-5.5-2.2-8.4-2.2-1.6,0-2.7.3-3.7.9-.9.5-1.4,1.2-1.4,2.2,0,1.4.9,2.1,1.9,2.5,1.5.6,2.8.6,5.3,1.3l2.9.8c2.1.6,5.3,2.2,6.6,3.5,2.2,2.1,3.4,5.6,3.4,8.9,0,5.4-2.3,9-4.5,11.1-5.2,5.2-12.8,5.6-16.5,5.6-4,0-10.3-.5-18-5.2l5.7-11.1Z"/>
</svg>