<?xml version="1.0" encoding="UTF-8"?>
<svg id="artwork" xmlns="http://www.w3.org/2000/svg" version="1.1" viewBox="0 0 144 72">
  <!-- Generator: Adobe Illustrator 29.0.1, SVG Export Plug-In . SVG Version: 2.1.0 Build 192)  -->
  <defs>
    <style>
      .st0 {
        fill: #fff;
      }
    </style>
  </defs>
  <path class="st0" d="M23.7,36.4c-2.5.9-3.9,1.2-5.4,1.2-4.2,0-7.3-1.7-9.3-3.6-2.3-2.3-3.6-5.6-3.6-8.7s1.5-6.7,3.6-8.9c2.1-2.2,5.3-3.7,9.1-3.7s3,.2,5.6,1.2v7.5c-2-2.5-4.4-2.6-5.4-2.6-1.8,0-3.2.5-4.3,1.6-1.5,1.4-2.1,3.2-2.1,4.9s.7,3.5,1.9,4.7c1,1,2.7,1.7,4.5,1.7s3.2-.1,5.4-2.5v7.4Z"/>
  <path class="st0" d="M25.4,10.8h5.8v12.2c.4-.5,1.1-1.2,1.8-1.6,1.1-.6,2.3-.8,3.3-.8,2.3,0,3.8.8,4.8,1.7,1.4,1.4,1.5,3,1.5,4.5v10.2h-5.8v-8.1c0-1.2,0-2.4-.7-3.1-.5-.6-1.3-.7-1.8-.7s-1.4.1-2.1.7c-.5.5-1,1.3-1,2.6v8.6h-5.8V10.8Z"/>
  <path class="st0" d="M61.5,30.1h-12c0,.9.3,2,1,2.7.4.4,1.1.8,2.4.8s1.2,0,1.9-.4c.4-.2.8-.6,1-1.1h5.5c-.3.9-.8,2.2-1.9,3.3s-3.1,2.2-6.6,2.2-4.7-.5-6.7-2.4c-1-1-2.4-3-2.4-6.1s1-4.9,2.4-6.2c1.3-1.3,3.4-2.3,6.6-2.3s4.3.4,6.2,2.2c2.3,2.2,2.6,5,2.6,6.8v.6ZM56.2,26.7c-.1-.6-.5-1.3-.9-1.7-.8-.8-1.8-.9-2.4-.9-1,0-1.7.3-2.3.9-.4.4-.8,1-.9,1.7h6.5Z"/>
  <path class="st0" d="M63,31.7c.7.5,1.5.9,2.3,1.2.7.3,1.6.4,2.2.4s1.1-.1,1.5-.4c.3-.3.3-.5.3-.8s0-.5-.3-.7c-.4-.3-.9-.4-1.5-.6l-1.5-.4c-.8-.2-1.9-.5-2.8-1.4-.6-.6-1-1.5-1-2.8s.6-3,1.5-3.9c1.2-1.3,3.4-1.9,5.8-1.9s4.2.6,5.1,1l-1.9,3.7c-.8-.4-2-.8-3-.8s-1,.1-1.3.3c-.3.2-.5.4-.5.8s.3.8.7.9c.5.2,1,.2,1.9.5l1,.3c.8.2,1.9.8,2.4,1.3.8.8,1.2,2,1.2,3.2,0,1.9-.8,3.2-1.6,4-1.9,1.9-4.6,2-5.9,2s-3.7-.2-6.5-1.9l2.1-4Z"/>
  <path class="st0" d="M81.9,10.8v26.2h-5.8V10.8h5.8Z"/>
  <path class="st0" d="M100.9,30.1h-12c0,.9.3,2,1,2.7s1.1.8,2.4.8,1.2,0,1.9-.4c.4-.2.8-.6,1-1.1h5.5c-.3.9-.8,2.2-1.9,3.3s-3.1,2.2-6.6,2.2-4.7-.5-6.7-2.4-2.4-3-2.4-6.1,1-4.9,2.4-6.2c1.3-1.3,3.4-2.3,6.6-2.3s4.3.4,6.2,2.2c2.3,2.2,2.6,5,2.6,6.8v.6ZM95.6,26.7c-.1-.6-.5-1.3-.9-1.7-.8-.8-1.8-.9-2.4-.9-1,0-1.7.3-2.3.9-.4.4-.8,1-.9,1.7h6.5Z"/>
  <path class="st0" d="M107.1,34.8l-7.8-13.9h6.7l4.3,8.2,4.2-8.2h6.6l-12.9,24.3h-6.4l5.4-10.4Z"/>
  <path class="st0" d="M125.7,13h5.4l-5.9,10.6h-3.7l4.1-10.6Z"/>
  <path class="st0" d="M127.1,31.7c.7.5,1.5.9,2.3,1.2.7.3,1.6.4,2.2.4s1.1-.1,1.5-.4c.3-.3.3-.5.3-.8s0-.5-.3-.7c-.4-.3-.9-.4-1.5-.6l-1.5-.4c-.8-.2-1.9-.5-2.8-1.4-.6-.6-1-1.5-1-2.8s.6-3,1.5-3.9c1.2-1.3,3.4-1.9,5.8-1.9s4.2.6,5.1,1l-1.9,3.7c-.8-.4-2-.8-3-.8s-1,.1-1.3.3c-.3.2-.5.4-.5.8s.3.8.7.9c.5.2,1,.2,1.9.5l1,.3c.8.2,1.9.8,2.4,1.3.8.8,1.2,2,1.2,3.2,0,1.9-.8,3.2-1.6,4-1.9,1.9-4.6,2-5.9,2s-3.7-.2-6.5-1.9l2.1-4Z"/>
</svg>